# xmcd
#
# Track frame offsets:
#  150
#  15593
#  28021
#  41578
#  58351
#  72963
#  96181
#  111600
#  124701
#  139813
#  158259
#
# Disc length: 2296 seconds
#
# Revision: 0
# Processed by: cddbd v1.5.2PL0 Copyright (c) Steve Scherf et al.
# Submitted via: Collectorz.com_Music_Collector 6.11
#
DISCID=9608f60b
DTITLE=Billy Ryan - Ready For The Ride
DYEAR=2009
DGENRE=Country
TTITLE0=Simpleville
TTITLE1=Ready For The Ride
TTITLE2=What's When I Believed
TTITLE3=Let Me See Your Hands
TTITLE4=Different Kind Of Crown
TTITLE5=That's Why I Run
TTITLE6=While I Still Can
TTITLE7=Big City
TTITLE8=You Never Know
TTITLE9=When Daddy Drank
TTITLE10=Going Trough Hell
EXTD=
EXTT0=
EXTT1=
EXTT2=
EXTT3=
EXTT4=
EXTT5=
EXTT6=
EXTT7=
EXTT8=
EXTT9=
EXTT10=
PLAYORDER=
